<svg width="20" height="24" viewBox="0 0 20 24" fill="none" xmlns="http://www.w3.org/2000/svg">
<path d="M19.2287 18.3882C18.8828 19.1873 18.4734 19.9228 17.9991 20.5991C17.3525 21.5209 16.8231 22.1591 16.4151 22.5134C15.7826 23.0951 15.105 23.3929 14.3793 23.4099C13.8584 23.4099 13.2301 23.2617 12.4988 22.9609C11.7652 22.6617 11.0909 22.5134 10.4744 22.5134C9.82779 22.5134 9.13433 22.6617 8.39259 22.9609C7.64972 23.2617 7.05127 23.4184 6.59372 23.4339C5.89786 23.4635 5.20426 23.1572 4.51193 22.5134C4.07005 22.128 3.51734 21.4673 2.85522 20.5313C2.14482 19.5318 1.56078 18.3727 1.10322 17.0513C0.613201 15.624 0.367554 14.2419 0.367554 12.9038C0.367554 11.3711 0.698754 10.0491 1.36214 8.94127C1.88351 8.05144 2.57711 7.34951 3.4452 6.83421C4.3133 6.31892 5.25127 6.05633 6.26139 6.03953C6.8141 6.03953 7.5389 6.2105 8.4396 6.5465C9.33777 6.88363 9.91447 7.05459 10.1673 7.05459C10.3564 7.05459 10.997 6.85469 12.0831 6.45614C13.1101 6.08654 13.977 5.93351 14.6871 5.99379C16.6113 6.14909 18.057 6.90763 19.0184 8.27422C17.2974 9.31694 16.4461 10.7774 16.4631 12.651C16.4786 14.1103 17.008 15.3247 18.0485 16.2889C18.52 16.7365 19.0466 17.0824 19.6325 17.328C19.5054 17.6965 19.3713 18.0494 19.2287 18.3882ZM14.8156 1.02212C14.8156 2.16595 14.3977 3.23393 13.5647 4.22245C12.5596 5.3976 11.3437 6.07666 10.0253 5.96951C10.0085 5.83229 9.99875 5.68786 9.99875 5.5361C9.99875 4.43803 10.4768 3.26287 11.3257 2.30203C11.7495 1.81553 12.2885 1.41102 12.9421 1.08833C13.5944 0.770459 14.2113 0.594666 14.7916 0.564568C14.8085 0.717476 14.8156 0.870398 14.8156 1.02211V1.02212Z" fill="white"/>
</svg>
